<?xml version="1.0"?>
<svg version="1.1" xmlns="http://www.w3.org/2000/svg" xmlns:xlink="http://www.w3.org/1999/xlink" width="500" height="500">
    <desc iVinci="yes" version="4.6" gridStep="10" showGrid="yes" snapToGrid="yes" codePlatform="0"/>
    <g id="Layer1" name="Layer 1" opacity="1">
        <g id="Shape1">
            <desc shapeID="1" type="0" basicInfo-basicType="1" basicInfo-roundedRectRadius="12" basicInfo-polygonSides="6" basicInfo-starPoints="5" bounding="rect(-278,-291.5,556,583)" text="" font-familyName="Helvetica" font-pixelSize="20" font-bold="0" font-underline="0" font-alignment="1" strokeStyle="0" markerStart="0" markerEnd="0" shadowEnabled="0" shadowOffsetX="0" shadowOffsetY="2" shadowBlur="4" shadowOpacity="160" blurEnabled="0" blurRadius="4" transform="matrix(0.89928,0,0,0.857633,250.5,250.5)" pers-center="0,0" pers-size="0,0" pers-start="0,0" pers-end="0,0" locked="0" mesh="" flag=""/>
            <path id="shapePath1" d="M0.500061,0.500046 L500.5,0.500046 L500.5,500.5 L0.500061,500.5 L0.500061,0.500046 Z" style="stroke:none;fill-rule:evenodd;fill:#ffffff;fill-opacity:1;"/>
        </g>
        <g id="Shape2">
            <desc shapeID="2" type="0" basicInfo-basicType="4" basicInfo-roundedRectRadius="12" basicInfo-polygonSides="6" basicInfo-starPoints="5" bounding="rect(-32.0002,-34.5003,64.0005,69.0006)" text="" font-familyName="Helvetica" font-pixelSize="20" font-bold="0" font-underline="0" font-alignment="1" strokeStyle="0" markerStart="0" markerEnd="0" shadowEnabled="0" shadowOffsetX="0" shadowOffsetY="2" shadowBlur="4" shadowOpacity="160" blurEnabled="0" blurRadius="4" transform="matrix(-2.96533e-06,-0.803572,0.745341,-2.74926e-06,334.786,366.214)" pers-center="0,0" pers-size="0,0" pers-start="0,0" pers-end="0,0" locked="0" mesh="" flag=""/>
            <path id="shapePath2" d="M334.786,391.929 C320.584,391.929 309.071,380.416 309.071,366.214 C309.071,352.013 320.584,340.5 334.786,340.5 C348.987,340.5 360.5,352.013 360.5,366.214 C360.5,380.416 348.987,391.928 334.786,391.929 Z" style="stroke:none;fill-rule:evenodd;fill:#ffa0c8;fill-opacity:1;"/>
        </g>
        <g id="Shape3">
            <desc shapeID="3" type="0" basicInfo-basicType="0" basicInfo-roundedRectRadius="12" basicInfo-polygonSides="6" basicInfo-starPoints="5" bounding="rect(-31.4999,-70.5,62.9999,141)" text="" font-familyName="Helvetica" font-pixelSize="20" font-bold="0" font-underline="0" font-alignment="1" strokeStyle="0" markerStart="0" markerEnd="0" shadowEnabled="0" shadowOffsetX="0" shadowOffsetY="2" shadowBlur="4" shadowOpacity="160" blurEnabled="0" blurRadius="4" transform="matrix(0.980557,0,0,0.851064,171.387,190.5)" pers-center="0,0" pers-size="0,0" pers-start="0,0" pers-end="0,0" locked="0" mesh="" flag=""/>
            <path id="shapePath3" d="M140.5,160.5 C140.5,160.5 140.5,130.5 171.388,130.5 C202.275,130.5 202.275,160.5 202.275,160.5 L202.275,220.5 C202.275,220.5 202.275,250.5 171.388,250.5 C140.5,250.5 140.5,220.5 140.5,220.5 L140.5,160.5 Z" style="stroke:none;fill-rule:evenodd;fill:#ffa050;fill-opacity:1;"/>
        </g>
        <g id="Shape4">
            <desc shapeID="4" type="0" basicInfo-basicType="0" basicInfo-roundedRectRadius="12" basicInfo-polygonSides="6" basicInfo-starPoints="5" bounding="rect(-30.4998,-82.5,60.9997,165)" text="" font-familyName="Helvetica" font-pixelSize="20" font-bold="0" font-underline="0" font-alignment="1" strokeStyle="0" markerStart="0" markerEnd="0" shadowEnabled="0" shadowOffsetX="0" shadowOffsetY="2" shadowBlur="4" shadowOpacity="160" blurEnabled="0" blurRadius="4" transform="matrix(1.01271,0,0,0.909091,171.387,325.5)" pers-center="0,0" pers-size="0,0" pers-start="0,0" pers-end="0,0" locked="0" mesh="" flag=""/>
            <path id="shapePath4" d="M140.5,280.5 C140.5,280.5 140.5,250.5 171.388,250.5 C202.275,250.5 202.275,280.5 202.275,280.5 L202.275,400.5 L140.5,400.5 L140.5,280.5 Z" style="stroke:none;fill-rule:evenodd;fill:#ffa0c8;fill-opacity:1;"/>
        </g>
        <g id="Shape5">
            <desc shapeID="5" type="0" basicInfo-basicType="0" basicInfo-roundedRectRadius="12" basicInfo-polygonSides="6" basicInfo-starPoints="5" bounding="rect(-77.1182,-29.0001,154.236,58.0002)" text="" font-familyName="Helvetica" font-pixelSize="20" font-bold="0" font-underline="0" font-alignment="1" strokeStyle="0" markerStart="0" markerEnd="0" shadowEnabled="0" shadowOffsetX="0" shadowOffsetY="2" shadowBlur="4" shadowOpacity="160" blurEnabled="0" blurRadius="4" transform="matrix(1.22037,0,0,1.03448,266.388,250.5)" pers-center="0,0" pers-size="0,0" pers-start="0,0" pers-end="0,0" locked="0" mesh="" flag=""/>
            <path id="shapePath5" d="M202.021,220.5 L360.5,220.5 L360.5,280.5 L202.021,280.5 C202.021,280.5 172.275,280.5 172.275,250.5 C172.275,220.5 202.021,220.5 202.021,220.5 Z" style="stroke:none;fill-rule:evenodd;fill:#00a0c8;fill-opacity:1;"/>
        </g>
        <g id="Shape6">
            <desc shapeID="6" type="0" basicInfo-basicType="4" basicInfo-roundedRectRadius="12" basicInfo-polygonSides="6" basicInfo-starPoints="5" bounding="rect(-32.0002,-34.5003,64.0005,69.0006)" text="" font-familyName="Helvetica" font-pixelSize="20" font-bold="0" font-underline="0" font-alignment="1" strokeStyle="0" markerStart="0" markerEnd="0" shadowEnabled="0" shadowOffsetX="0" shadowOffsetY="2" shadowBlur="4" shadowOpacity="160" blurEnabled="0" blurRadius="4" transform="matrix(-2.96533e-06,-0.803572,0.745341,-2.74926e-06,326.215,366.214)" pers-center="0,0" pers-size="0,0" pers-start="0,0" pers-end="0,0" locked="0" mesh="" flag=""/>
            <path id="shapePath6" d="M326.214,391.929 C312.013,391.929 300.5,380.416 300.5,366.214 C300.5,352.013 312.013,340.5 326.214,340.5 C340.416,340.5 351.928,352.013 351.929,366.214 C351.929,380.416 340.416,391.929 326.214,391.929 Z" style="stroke:none;fill-rule:evenodd;fill:#ffa050;fill-opacity:1;"/>
        </g>
        <g id="Shape7">
            <desc shapeID="7" type="0" basicInfo-basicType="4" basicInfo-roundedRectRadius="12" basicInfo-polygonSides="6" basicInfo-starPoints="5" bounding="rect(-32.0002,-34.5003,64.0005,69.0006)" text="" font-familyName="Helvetica" font-pixelSize="20" font-bold="0" font-underline="0" font-alignment="1" strokeStyle="0" markerStart="0" markerEnd="0" shadowEnabled="0" shadowOffsetX="0" shadowOffsetY="2" shadowBlur="4" shadowOpacity="160" blurEnabled="0" blurRadius="4" transform="matrix(-2.96533e-06,-0.803572,0.745341,-2.74926e-06,334.786,374.785)" pers-center="0,0" pers-size="0,0" pers-start="0,0" pers-end="0,0" locked="0" mesh="" flag=""/>
            <path id="shapePath7" d="M334.786,400.5 C320.584,400.5 309.071,388.987 309.071,374.786 C309.071,360.584 320.584,349.071 334.786,349.071 C348.987,349.071 360.5,360.584 360.5,374.786 C360.5,388.987 348.987,400.5 334.786,400.5 Z" style="stroke:none;fill-rule:evenodd;fill:#00a0c8;fill-opacity:1;"/>
        </g>
        <g id="Shape8">
            <desc shapeID="8" type="0" basicInfo-basicType="4" basicInfo-roundedRectRadius="12" basicInfo-polygonSides="6" basicInfo-starPoints="5" bounding="rect(-32.0002,-34.5003,64.0005,69.0006)" text="" font-familyName="Helvetica" font-pixelSize="20" font-bold="0" font-underline="0" font-alignment="1" strokeStyle="0" markerStart="0" markerEnd="0" shadowEnabled="0" shadowOffsetX="0" shadowOffsetY="2" shadowBlur="4" shadowOpacity="160" blurEnabled="0" blurRadius="4" transform="matrix(-2.96533e-06,-0.803572,0.745341,-2.74926e-06,326.214,374.786)" pers-center="0,0" pers-size="0,0" pers-start="0,0" pers-end="0,0" locked="0" mesh="" flag=""/>
            <path id="shapePath8" d="M326.214,400.5 C312.013,400.5 300.5,388.987 300.5,374.786 C300.5,360.584 312.013,349.071 326.214,349.071 C340.416,349.071 351.929,360.584 351.929,374.786 C351.929,388.987 340.416,400.5 326.214,400.5 Z" style="stroke:none;fill-rule:evenodd;fill:#00a050;fill-opacity:1;"/>
        </g>
        <g id="Shape9">
            <desc shapeID="9" type="0" basicInfo-basicType="4" basicInfo-roundedRectRadius="12" basicInfo-polygonSides="6" basicInfo-starPoints="5" bounding="rect(-31.9996,-34.4996,63.9992,68.9992)" text="" font-familyName="Helvetica" font-pixelSize="20" font-bold="0" font-underline="0" font-alignment="1" strokeStyle="0" markerStart="0" markerEnd="0" shadowEnabled="0" shadowOffsetX="0" shadowOffsetY="2" shadowBlur="4" shadowOpacity="160" blurEnabled="0" blurRadius="4" transform="matrix(-2.96533e-06,-0.803572,0.745341,-2.74926e-06,330.5,370.5)" pers-center="0,0" pers-size="0,0" pers-start="0,0" pers-end="0,0" locked="0" mesh="" flag=""/>
            <path id="shapePath9" d="M330.5,396.214 C316.298,396.214 304.786,384.702 304.786,370.5 C304.786,356.298 316.298,344.786 330.5,344.786 C344.701,344.786 356.214,356.298 356.214,370.5 C356.214,384.701 344.702,396.214 330.5,396.214 Z" style="stroke:none;fill-rule:evenodd;fill:#ffffff;fill-opacity:1;"/>
        </g>
        <g id="Shape10">
            <desc shapeID="10" type="0" basicInfo-basicType="0" basicInfo-roundedRectRadius="12" basicInfo-polygonSides="6" basicInfo-starPoints="5" bounding="rect(-102.429,-29.5,204.858,59)" text="" font-familyName="Helvetica" font-pixelSize="20" font-bold="0" font-underline="0" font-alignment="1" strokeStyle="0" markerStart="0" markerEnd="0" shadowEnabled="0" shadowOffsetX="0" shadowOffsetY="2" shadowBlur="4" shadowOpacity="160" blurEnabled="0" blurRadius="4" transform="matrix(0.918808,0,0,1.01695,266.387,130.5)" pers-center="0,0" pers-size="0,0" pers-start="0,0" pers-end="0,0" locked="0" mesh="" flag=""/>
            <path id="shapePath10" d="M202.022,100.5 L360.5,100.5 L360.5,160.5 L202.022,160.5 C202.022,160.5 172.275,160.5 172.275,130.5 C172.275,100.5 202.022,100.5 202.022,100.5 Z" style="stroke:none;fill-rule:evenodd;fill:#00a050;fill-opacity:1;"/>
        </g>
        <g id="Shape11">
            <desc shapeID="11" type="0" basicInfo-basicType="4" basicInfo-roundedRectRadius="12" basicInfo-polygonSides="6" basicInfo-starPoints="5" bounding="rect(-32.0004,-34.5005,64.0009,69.001)" text="" font-familyName="Helvetica" font-pixelSize="20" font-bold="0" font-underline="0" font-alignment="1" strokeStyle="0" markerStart="0" markerEnd="0" shadowEnabled="0" shadowOffsetX="0" shadowOffsetY="2" shadowBlur="4" shadowOpacity="160" blurEnabled="0" blurRadius="4" transform="matrix(0.56821,-0.568212,0.527037,0.527035,177.339,130.5)" pers-center="0,0" pers-size="0,0" pers-start="0,0" pers-end="0,0" locked="0" mesh="" flag=""/>
            <path id="shapePath11" d="M159.156,148.683 C149.114,138.641 149.114,122.359 159.156,112.317 C169.198,102.275 185.48,102.275 195.522,112.317 C205.564,122.359 205.564,138.641 195.522,148.683 C185.48,158.725 169.198,158.725 159.156,148.683 Z" style="stroke:none;fill-rule:evenodd;fill:#ffa0c8;fill-opacity:1;"/>
        </g>
        <g id="Shape12">
            <desc shapeID="12" type="0" basicInfo-basicType="4" basicInfo-roundedRectRadius="12" basicInfo-polygonSides="6" basicInfo-starPoints="5" bounding="rect(-32,-34.5005,64,69.001)" text="" font-familyName="Helvetica" font-pixelSize="20" font-bold="0" font-underline="0" font-alignment="1" strokeStyle="0" markerStart="0" markerEnd="0" shadowEnabled="0" shadowOffsetX="0" shadowOffsetY="2" shadowBlur="4" shadowOpacity="160" blurEnabled="0" blurRadius="4" transform="matrix(0.56821,-0.568212,0.527037,0.527035,171.278,124.439)" pers-center="0,0" pers-size="0,0" pers-start="0,0" pers-end="0,0" locked="0" mesh="" flag=""/>
            <path id="shapePath12" d="M153.096,142.622 C143.053,132.58 143.053,116.298 153.095,106.256 C163.138,96.2143 179.419,96.2142 189.461,106.256 C199.503,116.298 199.503,132.58 189.461,142.622 C179.419,152.664 163.138,152.664 153.096,142.622 Z" style="stroke:none;fill-rule:evenodd;fill:#ffa050;fill-opacity:1;"/>
        </g>
        <g id="Shape13">
            <desc shapeID="13" type="0" basicInfo-basicType="4" basicInfo-roundedRectRadius="12" basicInfo-polygonSides="6" basicInfo-starPoints="5" bounding="rect(-32,-34.5,64,69)" text="" font-familyName="Helvetica" font-pixelSize="20" font-bold="0" font-underline="0" font-alignment="1" strokeStyle="0" markerStart="0" markerEnd="0" shadowEnabled="0" shadowOffsetX="0" shadowOffsetY="2" shadowBlur="4" shadowOpacity="160" blurEnabled="0" blurRadius="4" transform="matrix(0.56821,-0.568212,0.527037,0.527035,171.278,136.561)" pers-center="0,0" pers-size="0,0" pers-start="0,0" pers-end="0,0" locked="0" mesh="" flag=""/>
            <path id="shapePath13" d="M153.096,154.744 C143.053,144.702 143.053,128.42 153.096,118.378 C163.138,108.336 179.419,108.336 189.461,118.378 C199.503,128.42 199.503,144.701 189.461,154.744 C179.419,164.786 163.138,164.786 153.096,154.744 Z" style="stroke:none;fill-rule:evenodd;fill:#00a0c8;fill-opacity:1;"/>
        </g>
        <g id="Shape14">
            <desc shapeID="14" type="0" basicInfo-basicType="4" basicInfo-roundedRectRadius="12" basicInfo-polygonSides="6" basicInfo-starPoints="5" bounding="rect(-32,-34.5,64,69)" text="" font-familyName="Helvetica" font-pixelSize="20" font-bold="0" font-underline="0" font-alignment="1" strokeStyle="0" markerStart="0" markerEnd="0" shadowEnabled="0" shadowOffsetX="0" shadowOffsetY="2" shadowBlur="4" shadowOpacity="160" blurEnabled="0" blurRadius="4" transform="matrix(0.56821,-0.568212,0.527037,0.527035,165.217,130.5)" pers-center="0,0" pers-size="0,0" pers-start="0,0" pers-end="0,0" locked="0" mesh="" flag=""/>
            <path id="shapePath14" d="M147.035,148.683 C136.993,138.641 136.993,122.359 147.035,112.317 C157.077,102.275 173.358,102.275 183.4,112.317 C193.442,122.359 193.442,138.641 183.4,148.683 C173.358,158.725 157.077,158.725 147.035,148.683 Z" style="stroke:none;fill-rule:evenodd;fill:#00a050;fill-opacity:1;"/>
        </g>
        <g id="Shape15">
            <desc shapeID="15" type="0" basicInfo-basicType="4" basicInfo-roundedRectRadius="12" basicInfo-polygonSides="6" basicInfo-starPoints="5" bounding="rect(-32,-34.5005,64,69.001)" text="" font-familyName="Helvetica" font-pixelSize="20" font-bold="0" font-underline="0" font-alignment="1" strokeStyle="0" markerStart="0" markerEnd="0" shadowEnabled="0" shadowOffsetX="0" shadowOffsetY="2" shadowBlur="4" shadowOpacity="160" blurEnabled="0" blurRadius="4" transform="matrix(0.56821,-0.568212,0.527037,0.527035,171.278,130.5)" pers-center="0,0" pers-size="0,0" pers-start="0,0" pers-end="0,0" locked="0" mesh="" flag=""/>
            <path id="shapePath15" d="M153.096,148.683 C143.053,138.641 143.053,122.359 153.095,112.317 C163.138,102.275 179.419,102.275 189.461,112.317 C199.503,122.359 199.503,138.641 189.461,148.683 C179.419,158.725 163.138,158.725 153.096,148.683 Z" style="stroke:none;fill-rule:evenodd;fill:#ffffff;fill-opacity:1;"/>
        </g>
        <g id="Shape16">
            <desc shapeID="16" type="0" basicInfo-basicType="4" basicInfo-roundedRectRadius="12" basicInfo-polygonSides="6" basicInfo-starPoints="5" bounding="rect(-32.0004,-34.5,64.0009,69.0001)" text="" font-familyName="Helvetica" font-pixelSize="20" font-bold="0" font-underline="0" font-alignment="1" strokeStyle="0" markerStart="0" markerEnd="0" shadowEnabled="0" shadowOffsetX="0" shadowOffsetY="2" shadowBlur="4" shadowOpacity="160" blurEnabled="0" blurRadius="4" transform="matrix(-0.568214,0.568208,-0.527033,-0.527039,166.214,250.5)" pers-center="0,0" pers-size="0,0" pers-start="0,0" pers-end="0,0" locked="0" mesh="" flag=""/>
            <path id="shapePath16" d="M184.397,232.317 C194.439,242.359 194.439,258.641 184.397,268.683 C174.355,278.725 158.073,278.725 148.031,268.683 C137.989,258.64 137.99,242.359 148.032,232.317 C158.074,222.275 174.355,222.275 184.397,232.317 Z" style="stroke:none;fill-rule:evenodd;fill:#ffa0c8;fill-opacity:1;"/>
        </g>
        <g id="Shape17">
            <desc shapeID="17" type="0" basicInfo-basicType="4" basicInfo-roundedRectRadius="12" basicInfo-polygonSides="6" basicInfo-starPoints="5" bounding="rect(-32.0004,-34.5005,64.0009,69.001)" text="" font-familyName="Helvetica" font-pixelSize="20" font-bold="0" font-underline="0" font-alignment="1" strokeStyle="0" markerStart="0" markerEnd="0" shadowEnabled="0" shadowOffsetX="0" shadowOffsetY="2" shadowBlur="4" shadowOpacity="160" blurEnabled="0" blurRadius="4" transform="matrix(-0.568214,0.568208,-0.527033,-0.527039,172.275,256.561)" pers-center="0,0" pers-size="0,0" pers-start="0,0" pers-end="0,0" locked="0" mesh="" flag=""/>
            <path id="shapePath17" d="M190.458,238.378 C200.5,248.42 200.5,264.702 190.458,274.744 C180.416,284.786 164.134,284.786 154.092,274.744 C144.05,264.701 144.05,248.42 154.092,238.378 C164.135,228.336 180.416,228.336 190.458,238.378 Z" style="stroke:none;fill-rule:evenodd;fill:#ffa050;fill-opacity:1;"/>
        </g>
        <g id="Shape18">
            <desc shapeID="18" type="0" basicInfo-basicType="4" basicInfo-roundedRectRadius="12" basicInfo-polygonSides="6" basicInfo-starPoints="5" bounding="rect(-32.0005,-34.5,64.0009,69)" text="" font-familyName="Helvetica" font-pixelSize="20" font-bold="0" font-underline="0" font-alignment="1" strokeStyle="0" markerStart="0" markerEnd="0" shadowEnabled="0" shadowOffsetX="0" shadowOffsetY="2" shadowBlur="4" shadowOpacity="160" blurEnabled="0" blurRadius="4" transform="matrix(-0.568214,0.568208,-0.527033,-0.527039,172.275,244.439)" pers-center="0,0" pers-size="0,0" pers-start="0,0" pers-end="0,0" locked="0" mesh="" flag=""/>
            <path id="shapePath18" d="M190.458,226.256 C200.5,236.299 200.5,252.58 190.458,262.622 C180.416,272.664 164.134,272.664 154.092,262.622 C144.05,252.58 144.05,236.298 154.093,226.256 C164.135,216.214 180.416,216.214 190.458,226.256 Z" style="stroke:none;fill-rule:evenodd;fill:#00a0c8;fill-opacity:1;"/>
        </g>
        <g id="Shape19">
            <desc shapeID="19" type="0" basicInfo-basicType="4" basicInfo-roundedRectRadius="12" basicInfo-polygonSides="6" basicInfo-starPoints="5" bounding="rect(-32.0004,-34.5005,64.0009,69.001)" text="" font-familyName="Helvetica" font-pixelSize="20" font-bold="0" font-underline="0" font-alignment="1" strokeStyle="0" markerStart="0" markerEnd="0" shadowEnabled="0" shadowOffsetX="0" shadowOffsetY="2" shadowBlur="4" shadowOpacity="160" blurEnabled="0" blurRadius="4" transform="matrix(-0.568214,0.568208,-0.527033,-0.527039,178.336,250.5)" pers-center="0,0" pers-size="0,0" pers-start="0,0" pers-end="0,0" locked="0" mesh="" flag=""/>
            <path id="shapePath19" d="M196.519,232.317 C206.561,242.359 206.561,258.641 196.519,268.683 C186.477,278.725 170.195,278.725 160.153,268.683 C150.111,258.641 150.111,242.359 160.153,232.317 C170.196,222.275 186.477,222.275 196.519,232.317 Z" style="stroke:none;fill-rule:evenodd;fill:#00a050;fill-opacity:1;"/>
        </g>
        <g id="Shape20">
            <desc shapeID="20" type="0" basicInfo-basicType="4" basicInfo-roundedRectRadius="12" basicInfo-polygonSides="6" basicInfo-starPoints="5" bounding="rect(-32.0004,-34.5005,64.0009,69.001)" text="" font-familyName="Helvetica" font-pixelSize="20" font-bold="0" font-underline="0" font-alignment="1" strokeStyle="0" markerStart="0" markerEnd="0" shadowEnabled="0" shadowOffsetX="0" shadowOffsetY="2" shadowBlur="4" shadowOpacity="160" blurEnabled="0" blurRadius="4" transform="matrix(-0.568214,0.568208,-0.527033,-0.527039,172.275,250.5)" pers-center="0,0" pers-size="0,0" pers-start="0,0" pers-end="0,0" locked="0" mesh="" flag=""/>
            <path id="shapePath20" d="M190.458,232.317 C200.5,242.359 200.5,258.641 190.458,268.683 C180.416,278.725 164.134,278.725 154.092,268.683 C144.05,258.641 144.05,242.359 154.092,232.317 C164.135,222.275 180.416,222.275 190.458,232.317 Z" style="stroke:none;fill-rule:evenodd;fill:#ffffff;fill-opacity:1;"/>
        </g>
    </g>
</svg>
