<?xml version="1.0"?>
<svg version="1.1" xmlns="http://www.w3.org/2000/svg" xmlns:xlink="http://www.w3.org/1999/xlink" width="500" height="500">
    <desc iVinci="yes" version="4.6" gridStep="20" showGrid="yes" snapToGrid="yes" codePlatform="0"/>
    <g id="Layer1" name="Layer 1" opacity="1">
        <g id="Shape1">
            <desc shapeID="1" type="0" basicInfo-basicType="4" basicInfo-roundedRectRadius="12" basicInfo-polygonSides="6" basicInfo-starPoints="5" bounding="rect(-149.5,-149.5,299,299)" text="" font-familyName="Helvetica" font-pixelSize="20" font-bold="0" font-underline="0" font-alignment="1" strokeStyle="0" markerStart="0" markerEnd="0" shadowEnabled="0" shadowOffsetX="0" shadowOffsetY="2" shadowBlur="4" shadowOpacity="160" blurEnabled="0" blurRadius="4" transform="matrix(0.866221,0,0,1.07023,370,339.5)" pers-center="0,0" pers-size="0,0" pers-start="0,0" pers-end="0,0" locked="0" mesh="" flag=""/>
            <path id="shapePath1" d="M240.5,339.5 C240.5,251.134 298.479,179.5 370,179.5 C441.521,179.5 499.5,251.134 499.5,339.5 C499.5,427.866 441.521,499.5 370,499.5 C298.479,499.5 240.5,427.866 240.5,339.5 Z" style="stroke:none;fill-rule:evenodd;fill:#ffa0c8;fill-opacity:0.898039;"/>
        </g>
        <g id="Shape2">
            <desc shapeID="2" type="0" basicInfo-basicType="4" basicInfo-roundedRectRadius="12" basicInfo-polygonSides="6" basicInfo-starPoints="5" bounding="rect(-149.5,-149.5,299,299)" text="" font-familyName="Helvetica" font-pixelSize="20" font-bold="0" font-underline="0" font-alignment="1" strokeStyle="0" markerStart="0" markerEnd="0" shadowEnabled="0" shadowOffsetX="0" shadowOffsetY="2" shadowBlur="4" shadowOpacity="160" blurEnabled="0" blurRadius="4" transform="matrix(1.07023,0,0,0.87291,339.5,130)" pers-center="0,0" pers-size="0,0" pers-start="0,0" pers-end="0,0" locked="0" mesh="" flag=""/>
            <path id="shapePath2" d="M179.5,130 C179.5,57.9268 251.134,-0.500015 339.5,-0.5 C427.866,-0.5 499.5,57.9268 499.5,130 C499.5,202.073 427.866,260.5 339.5,260.5 C251.134,260.5 179.5,202.073 179.5,130 Z" style="stroke:none;fill-rule:evenodd;fill:#ffa050;fill-opacity:0.898039;"/>
        </g>
        <g id="Shape3">
            <desc shapeID="3" type="0" basicInfo-basicType="4" basicInfo-roundedRectRadius="12" basicInfo-polygonSides="6" basicInfo-starPoints="5" bounding="rect(-149.5,-149.5,299,299)" text="" font-familyName="Helvetica" font-pixelSize="20" font-bold="0" font-underline="0" font-alignment="1" strokeStyle="0" markerStart="0" markerEnd="0" shadowEnabled="0" shadowOffsetX="0" shadowOffsetY="2" shadowBlur="4" shadowOpacity="160" blurEnabled="0" blurRadius="4" transform="matrix(1.07023,0,0,0.87291,159.5,371)" pers-center="0,0" pers-size="0,0" pers-start="0,0" pers-end="0,0" locked="0" mesh="" flag=""/>
            <path id="shapePath3" d="M-0.499954,371 C-0.499924,298.927 71.1345,240.5 159.5,240.5 C247.866,240.5 319.5,298.927 319.5,371 C319.5,443.073 247.866,501.5 159.5,501.5 C71.1345,501.5 -0.499954,443.073 -0.499954,371 Z" style="stroke:none;fill-rule:evenodd;fill:#00a0c8;fill-opacity:0.898039;"/>
        </g>
        <g id="Shape4">
            <desc shapeID="4" type="0" basicInfo-basicType="4" basicInfo-roundedRectRadius="12" basicInfo-polygonSides="6" basicInfo-starPoints="5" bounding="rect(-149.5,-149.5,299,299)" text="" font-familyName="Helvetica" font-pixelSize="20" font-bold="0" font-underline="0" font-alignment="1" strokeStyle="0" markerStart="0" markerEnd="0" shadowEnabled="0" shadowOffsetX="0" shadowOffsetY="2" shadowBlur="4" shadowOpacity="160" blurEnabled="0" blurRadius="4" transform="matrix(0.87291,0,0,1.07023,130,159.5)" pers-center="0,0" pers-size="0,0" pers-start="0,0" pers-end="0,0" locked="0" mesh="" flag=""/>
            <path id="shapePath4" d="M-0.499924,159.5 C-0.499908,71.1344 57.9269,-0.499985 130,-0.499954 C202.073,-0.499954 260.5,71.1345 260.5,159.5 C260.5,247.866 202.073,319.5 130,319.5 C57.9269,319.5 -0.499924,247.866 -0.499924,159.5 Z" style="stroke:none;fill-rule:evenodd;fill:#00a050;fill-opacity:0.898039;"/>
        </g>
        <g id="Shape5">
            <desc shapeID="5" type="0" basicInfo-basicType="0" basicInfo-roundedRectRadius="12" basicInfo-polygonSides="6" basicInfo-starPoints="5" bounding="rect(-210,-210,420,420)" text="" font-familyName="Helvetica" font-pixelSize="20" font-bold="0" font-underline="0" font-alignment="1" strokeStyle="0" markerStart="0" markerEnd="0" shadowEnabled="0" shadowOffsetX="0" shadowOffsetY="2" shadowBlur="4" shadowOpacity="160" blurEnabled="0" blurRadius="4" transform="matrix(1,0,0,1,250.5,250.5)" pers-center="0,0" pers-size="0,0" pers-start="0,0" pers-end="0,0" locked="0" mesh="" flag=""/>
            <path id="shapePath5" d="M220.5,40.5 C220.5,40.5 288.892,189.582 250,250.1 C211.259,310.382 40.5,280.5 40.5,280.5 C40.5,280.5 192.434,212.467 250,250 C312.003,290.426 280.5,460.5 280.5,460.5 C280.5,460.5 212.595,308.018 250,250.1 C290.288,187.717 460.5,220.5 460.5,220.5 C460.5,220.5 311.572,290.457 249.699,250 C191.804,212.143 220.5,40.5 220.5,40.5 Z" style="stroke:none;fill-rule:evenodd;fill:#ffffff;fill-opacity:0.898039;"/>
        </g>
        <g id="Shape6">
            <desc shapeID="6" type="0" basicInfo-basicType="4" basicInfo-roundedRectRadius="12" basicInfo-polygonSides="6" basicInfo-starPoints="5" bounding="rect(-249.286,-250.767,498.571,501.533)" text="" font-familyName="Helvetica" font-pixelSize="20" font-bold="0" font-underline="0" font-alignment="1" strokeStyle="0" markerStart="0" markerEnd="0" shadowEnabled="0" shadowOffsetX="0" shadowOffsetY="2" shadowBlur="4" shadowOpacity="160" blurEnabled="0" blurRadius="4" transform="matrix(1.00287,0,0,0.996943,250.5,250.5)" pers-center="0,0" pers-size="0,0" pers-start="0,0" pers-end="0,0" locked="0" mesh="" flag=""/>
            <path id="shapePath6" d="M0.499985,250.5 C0.499985,112.429 112.429,0.499985 250.5,0.499985 C388.571,0.500015 500.5,112.429 500.5,250.5 C500.5,388.571 388.571,500.5 250.5,500.5 C112.429,500.5 0.499954,388.571 0.499985,250.5 Z" style="stroke:#323232;stroke-opacity:1;stroke-width:1;stroke-linejoin:miter;stroke-miterlimit:2;stroke-linecap:round;fill:none;"/>
        </g>
    </g>
</svg>
