<?xml version="1.0" encoding="UTF-8" standalone="no"?>
<!DOCTYPE svg PUBLIC "-//W3C//DTD SVG 1.1//EN" "http://www.w3.org/Graphics/SVG/1.1/DTD/svg11.dtd">
<svg width="100%" height="100%" viewBox="0 0 500 500" version="1.1" xmlns="http://www.w3.org/2000/svg" xmlns:xlink="http://www.w3.org/1999/xlink" xml:space="preserve" style="fill-rule:evenodd;clip-rule:evenodd;stroke-linejoin:round;stroke-miterlimit:1.41421;">
    <g id="Layer1">
        <g id="shapePath1" transform="matrix(1,0,0,1,-0.500061,-0.500046)">
            <rect x="0.5" y="0.5" width="500" height="500" style="fill:white;"/>
        </g>
        <path id="shapePath2" d="M334.786,391.929C320.584,391.929 309.071,380.416 309.071,366.214C309.071,352.013 320.584,340.5 334.786,340.5C348.987,340.5 360.5,352.013 360.5,366.214C360.5,380.416 348.987,391.928 334.786,391.929Z" style="fill:rgb(255,160,200);"/>
        <path id="shapePath3" d="M140.5,160.5C140.5,160.5 140.5,130.5 171.388,130.5C202.275,130.5 202.275,160.5 202.275,160.5L202.275,220.5C202.275,220.5 202.275,250.5 171.388,250.5C140.5,250.5 140.5,220.5 140.5,220.5L140.5,160.5Z" style="fill:rgb(255,160,80);"/>
        <path id="shapePath4" d="M140.5,280.5C140.5,280.5 140.5,250.5 171.388,250.5C202.275,250.5 202.275,280.5 202.275,280.5L202.275,400.5L140.5,400.5L140.5,280.5Z" style="fill:rgb(255,160,200);"/>
        <path id="shapePath5" d="M202.021,220.5L360.5,220.5L360.5,280.5L202.021,280.5C202.021,280.5 172.275,280.5 172.275,250.5C172.275,220.5 202.021,220.5 202.021,220.5Z" style="fill:rgb(0,160,200);"/>
        <path id="shapePath6" d="M326.214,391.929C312.013,391.929 300.5,380.416 300.5,366.214C300.5,352.013 312.013,340.5 326.214,340.5C340.416,340.5 351.928,352.013 351.929,366.214C351.929,380.416 340.416,391.929 326.214,391.929Z" style="fill:rgb(255,160,80);"/>
        <path id="shapePath7" d="M334.786,400.5C320.584,400.5 309.071,388.987 309.071,374.786C309.071,360.584 320.584,349.071 334.786,349.071C348.987,349.071 360.5,360.584 360.5,374.786C360.5,388.987 348.987,400.5 334.786,400.5Z" style="fill:rgb(0,160,200);"/>
        <path id="shapePath8" d="M326.214,400.5C312.013,400.5 300.5,388.987 300.5,374.786C300.5,360.584 312.013,349.071 326.214,349.071C340.416,349.071 351.929,360.584 351.929,374.786C351.929,388.987 340.416,400.5 326.214,400.5Z" style="fill:rgb(0,160,80);"/>
        <path id="shapePath9" d="M330.5,396.214C316.298,396.214 304.786,384.702 304.786,370.5C304.786,356.298 316.298,344.786 330.5,344.786C344.701,344.786 356.214,356.298 356.214,370.5C356.214,384.701 344.702,396.214 330.5,396.214Z" style="fill:white;"/>
        <path id="shapePath10" d="M202.022,100.5L360.5,100.5L360.5,160.5L202.022,160.5C202.022,160.5 172.275,160.5 172.275,130.5C172.275,100.5 202.022,100.5 202.022,100.5Z" style="fill:rgb(0,160,80);"/>
        <path id="shapePath11" d="M159.156,148.683C149.114,138.641 149.114,122.359 159.156,112.317C169.198,102.275 185.48,102.275 195.522,112.317C205.564,122.359 205.564,138.641 195.522,148.683C185.48,158.725 169.198,158.725 159.156,148.683Z" style="fill:rgb(255,160,200);"/>
        <path id="shapePath12" d="M153.096,142.622C143.053,132.58 143.053,116.298 153.095,106.256C163.138,96.214 179.419,96.214 189.461,106.256C199.503,116.298 199.503,132.58 189.461,142.622C179.419,152.664 163.138,152.664 153.096,142.622Z" style="fill:rgb(255,160,80);"/>
        <path id="shapePath13" d="M153.096,154.744C143.053,144.702 143.053,128.42 153.096,118.378C163.138,108.336 179.419,108.336 189.461,118.378C199.503,128.42 199.503,144.701 189.461,154.744C179.419,164.786 163.138,164.786 153.096,154.744Z" style="fill:rgb(0,160,200);"/>
        <path id="shapePath14" d="M147.035,148.683C136.993,138.641 136.993,122.359 147.035,112.317C157.077,102.275 173.358,102.275 183.4,112.317C193.442,122.359 193.442,138.641 183.4,148.683C173.358,158.725 157.077,158.725 147.035,148.683Z" style="fill:rgb(0,160,80);"/>
        <path id="shapePath15" d="M153.096,148.683C143.053,138.641 143.053,122.359 153.095,112.317C163.138,102.275 179.419,102.275 189.461,112.317C199.503,122.359 199.503,138.641 189.461,148.683C179.419,158.725 163.138,158.725 153.096,148.683Z" style="fill:white;"/>
        <path id="shapePath16" d="M184.397,232.317C194.439,242.359 194.439,258.641 184.397,268.683C174.355,278.725 158.073,278.725 148.031,268.683C137.989,258.64 137.99,242.359 148.032,232.317C158.074,222.275 174.355,222.275 184.397,232.317Z" style="fill:rgb(255,160,200);"/>
        <path id="shapePath17" d="M190.458,238.378C200.5,248.42 200.5,264.702 190.458,274.744C180.416,284.786 164.134,284.786 154.092,274.744C144.05,264.701 144.05,248.42 154.092,238.378C164.135,228.336 180.416,228.336 190.458,238.378Z" style="fill:rgb(255,160,80);"/>
        <path id="shapePath18" d="M190.458,226.256C200.5,236.299 200.5,252.58 190.458,262.622C180.416,272.664 164.134,272.664 154.092,262.622C144.05,252.58 144.05,236.298 154.093,226.256C164.135,216.214 180.416,216.214 190.458,226.256Z" style="fill:rgb(0,160,200);"/>
        <path id="shapePath19" d="M196.519,232.317C206.561,242.359 206.561,258.641 196.519,268.683C186.477,278.725 170.195,278.725 160.153,268.683C150.111,258.641 150.111,242.359 160.153,232.317C170.196,222.275 186.477,222.275 196.519,232.317Z" style="fill:rgb(0,160,80);"/>
        <path id="shapePath20" d="M190.458,232.317C200.5,242.359 200.5,258.641 190.458,268.683C180.416,278.725 164.134,278.725 154.092,268.683C144.05,258.641 144.05,242.359 154.092,232.317C164.135,222.275 180.416,222.275 190.458,232.317Z" style="fill:white;"/>
    </g>
</svg>
